<svg width="19" height="18" viewBox="0 0 19 18" fill="none" xmlns="http://www.w3.org/2000/svg">
<path d="M5.385 5.385V4.385H13.615V5.385H5.385ZM5.385 8.154V7.154H13.615V8.154H5.385ZM7.846 18H2C1.436 18 0.961667 17.8077 0.577 17.423C0.192333 17.0383 0 16.564 0 16V13.23H3V0H16V6.577L15 7.577V1H4V13.23H9.346L8.346 14.23H1V16C1 16.2833 1.096 16.521 1.288 16.713C1.48 16.905 1.71733 17.0007 2 17H7.846V18ZM10.231 18V15.79L16.191 9.856L18.381 12.06L12.44 18H10.231ZM11.116 17.116H12.066L15.533 13.642L15.063 13.167L14.608 12.679L11.116 16.165V17.116ZM15.063 13.167L14.608 12.679L15.533 13.642L15.063 13.167Z" fill="#06A0F9"/>
</svg>
