<svg width="233" height="233" viewBox="0 0 233 233" fill="none" xmlns="http://www.w3.org/2000/svg">
<g filter="url(#filter0_d_162_2)">
<rect x="16.8112" y="16.4215" width="200" height="200" rx="2" fill="#EF4343"/>
<path d="M171.173 150.706C174.374 141.873 175.974 132.926 175.974 123.866C175.974 116.96 175.093 110.763 173.332 105.276C171.679 100.126 169.25 95.5998 166.046 91.6984C159.427 83.685 151.235 79.6782 141.469 79.6782C137.563 79.6782 134.009 80.3384 130.808 81.6588C127.661 82.9792 125.03 84.7549 122.914 86.9859C120.798 89.2169 118.899 91.7667 117.218 94.6351C115.536 97.5491 114.098 100.6 112.904 103.787C111.711 106.974 110.599 110.161 109.568 113.348C108.537 116.535 107.479 119.563 106.394 122.432C105.309 125.346 104.115 127.918 102.813 130.149C101.565 132.38 100.019 134.156 98.1746 135.476C96.33 136.797 94.2413 137.457 91.9084 137.457C87.7308 137.457 84.3671 135.271 81.8172 130.9C79.2673 126.575 77.9923 120.906 77.9923 113.895C77.9923 106.428 80.4337 96.9344 85.3166 85.4151L85.5754 84.8504C86.0828 83.7431 85.491 82.4432 84.3227 82.0988L68.5154 77.4393C67.5571 77.1568 66.5374 77.6249 66.1267 78.5357L65.7039 79.4734C63.0998 85.0736 61.0924 90.378 59.6818 95.3863C58.3255 100.395 57.6473 106.018 57.6473 112.255C57.6473 118.493 58.3526 124.116 59.7632 129.125C61.228 134.179 63.0998 138.322 65.3784 141.555C67.7113 144.833 70.424 147.565 73.5164 149.75C76.6089 151.981 79.7285 153.552 82.8751 154.462C86.0761 155.419 89.3042 155.897 92.5594 155.897C97.605 155.897 102.054 154.827 105.906 152.687C109.812 150.592 112.932 147.861 115.264 144.491C117.597 141.122 119.659 137.388 121.449 133.291C123.24 129.193 124.813 125.095 126.169 120.997C127.526 116.945 128.882 113.234 130.238 109.865C131.649 106.496 133.358 103.741 135.365 101.601C137.373 99.5069 139.706 98.4597 142.364 98.4597C146.433 98.4597 149.77 100.827 152.374 105.562C154.978 110.343 156.28 116.08 156.28 122.773C156.28 129.557 154.924 137.07 152.211 145.311L151.997 145.931C151.626 147.007 152.227 148.176 153.319 148.5L168.367 152.964C169.391 153.267 170.473 152.713 170.824 151.705L171.173 150.706Z" fill="#082756"/>
</g>
<defs>
<filter id="filter0_d_162_2" x="0.811157" y="0.421545" width="232" height="232" filterUnits="userSpaceOnUse" color-interpolation-filters="sRGB">
<feFlood flood-opacity="0" result="BackgroundImageFix"/>
<feColorMatrix in="SourceAlpha" type="matrix" values="0 0 0 0 0 0 0 0 0 0 0 0 0 0 0 0 0 0 127 0" result="hardAlpha"/>
<feOffset/>
<feGaussianBlur stdDeviation="8"/>
<feColorMatrix type="matrix" values="0 0 0 0 0 0 0 0 0 0 0 0 0 0 0 0 0 0 0.2 0"/>
<feBlend mode="normal" in2="BackgroundImageFix" result="effect1_dropShadow_162_2"/>
<feBlend mode="normal" in="SourceGraphic" in2="effect1_dropShadow_162_2" result="shape"/>
</filter>
</defs>
</svg>